<?xml version="1.0" encoding="UTF-8" standalone="no"?><!DOCTYPE svg PUBLIC "-//W3C//DTD SVG 1.1//EN" "http://www.w3.org/Graphics/SVG/1.1/DTD/svg11.dtd"><svg width="100%" height="100%" viewBox="0 0 56 49" version="1.1" xmlns="http://www.w3.org/2000/svg" xmlns:xlink="http://www.w3.org/1999/xlink" xml:space="preserve" style="fill-rule:evenodd;clip-rule:evenodd;stroke-linejoin:round;stroke-miterlimit:1.41421;"><path d="M38.716,1l0.191,0.004l0.192,0.006l0.191,0.008l0.192,0.011l0.191,0.013l0.191,0.015l0.19,0.016l0.19,0.019l0.189,0.022l0.19,0.024l0.188,0.025l0.189,0.027l0.188,0.03l0.188,0.032l0.186,0.033l0.188,0.037l0.185,0.037l0.186,0.041l0.185,0.041l0.185,0.045l0.183,0.046l0.184,0.048l0.182,0.05l0.183,0.052l0.181,0.054l0.181,0.056l0.179,0.058l0.18,0.06l0.178,0.062l0.178,0.063l0.177,0.066l0.177,0.068l0.175,0.07l0.175,0.071l0.173,0.074l0.173,0.075l0.172,0.078l0.171,0.079l0.171,0.081l0.169,0.082l0.168,0.084l0.167,0.087l0.167,0.088l0.164,0.09l0.165,0.092l0.163,0.094l0.162,0.095l0.162,0.097l0.159,0.099l0.159,0.101l0.157,0.104l0.157,0.104l0.155,0.106l0.154,0.107l0.153,0.109l0.151,0.111l0.151,0.114l0.148,0.114l0.148,0.116l0.147,0.118l0.145,0.12l0.144,0.121l0.141,0.123l0.142,0.125l0.139,0.125l0.138,0.128l0.137,0.13l0.135,0.13l0.133,0.133l0.133,0.134l0.13,0.136l0.129,0.137l0.128,0.139l0.126,0.14l0.123,0.143l0.123,0.143l0.121,0.145l0.119,0.146l0.118,0.148l0.116,0.149l0.114,0.151l0.112,0.153l0.111,0.153l0.108,0.156l0.108,0.157l0.105,0.158l0.104,0.16l0.101,0.161l0.1,0.163l0.098,0.163l0.096,0.165l0.093,0.167l0.092,0.168l0.091,0.17l0.088,0.171l0.085,0.171l0.084,0.174l0.082,0.175l0.08,0.176l0.077,0.178l0.076,0.178l0.074,0.18l0.072,0.182l0.069,0.182l0.067,0.184l0.064,0.186l0.063,0.186l0.061,0.188l0.058,0.188l0.056,0.19l0.054,0.192l0.05,0.192l0.049,0.194l0.047,0.195l0.044,0.196l0.042,0.197l0.04,0.199l0.037,0.199l0.034,0.201l0.032,0.202l0.029,0.202l0.027,0.204l0.025,0.206l0.022,0.206l0.019,0.208l0.017,0.208l0.014,0.21l0.012,0.211l0.009,0.211l0.007,0.213l0.003,0.214l0.001,0.214l-0.002,0.216l-0.004,0.217l-0.007,0.218l-0.01,0.219l-0.013,0.22l-0.016,0.22l-0.018,0.223l-0.022,0.222l-0.024,0.224l-0.027,0.224l-0.029,0.225l-0.033,0.227l-0.036,0.227l-0.039,0.229l-0.042,0.229l-0.045,0.23l-0.048,0.231l-0.05,0.232l-0.054,0.232l-0.057,0.234l-0.06,0.234l-0.063,0.236l-0.067,0.235l-0.069,0.237l-0.073,0.237l-0.075,0.239l-0.079,0.24l-0.083,0.239l-0.085,0.242l-0.088,0.24l-0.093,0.243l-0.095,0.243l-0.099,0.244l-0.102,0.244l-0.105,0.246l-0.109,0.245l-0.112,0.247l-0.116,0.248l-0.119,0.247l-0.123,0.249l-0.125,0.25l-0.13,0.249l-0.133,0.251l-0.136,0.251l-0.141,0.252l-0.143,0.252l-0.147,0.254l-0.151,0.254l-0.154,0.253l-0.159,0.255l-0.161,0.256l-0.166,0.256l-0.168,0.256l-0.174,0.257l-0.176,0.258l-0.181,0.259l-0.184,0.259l-0.188,0.258l-0.191,0.26l-0.196,0.26l-0.199,0.261l-0.204,0.261l-0.207,0.261l-0.212,0.263l-0.215,0.262l-0.219,0.263l-0.223,0.264l-0.226,0.264l-0.232,0.263l-0.235,0.265l-0.239,0.265l-0.243,0.266l-0.247,0.266l-0.252,0.266l-0.255,0.267l-0.26,0.266l-0.263,0.267l-0.269,0.268l-0.272,0.268l-0.276,0.268l-0.281,0.269l-0.285,0.269l-0.289,0.269l-0.293,0.269l-0.298,0.27l-0.303,0.269l-0.306,0.27l-0.311,0.271l-0.315,0.27l-0.319,0.271l-0.324,0.272l-0.329,0.271l-0.333,0.271l-0.338,0.272l-0.342,0.272l-0.346,0.272l-0.351,0.272l-0.355,0.273l-0.361,0.272l-0.364,0.273l-0.37,0.272l-0.374,0.273l-0.378,0.273l-0.384,0.273l-0.388,0.273l-0.393,0.273l-0.397,0.274l-0.403,0.273l-0.407,0.274l-0.412,0.273l-0.416,0.274l-0.421,0.273l-0.427,0.274l-0.431,0.274l-0.436,0.273l-0.441,0.274l-0.446,0.274l-0.45,0.273l-0.456,0.274l-0.461,0.273l-0.466,0.273l-0.47,0.273l-0.477,0.274l-0.481,0.273l-0.077,0.043l-0.038,0.019l-0.035,0.017l-0.035,0.016l-0.034,0.015l-0.033,0.014l-0.033,0.012l-0.032,0.011l-0.031,0.009l-0.031,0.008l-0.03,0.006l-0.03,0.005l-0.03,0.003l-0.03,0.002l-0.029,0.001l-0.029,-0.001l-0.03,-0.002l-0.03,-0.003l-0.03,-0.005l-0.031,-0.006l-0.031,-0.008l-0.031,-0.009l-0.032,-0.011l-0.033,-0.011l-0.033,-0.015l-0.034,-0.014l-0.034,-0.017l-0.037,-0.017l-0.037,-0.019l-0.078,-0.043l-0.481,-0.273l-0.475,-0.274l-0.471,-0.273l-0.466,-0.273l-0.461,-0.273l-0.456,-0.274l-0.45,-0.273l-0.446,-0.274l-0.441,-0.274l-0.437,-0.273l-0.431,-0.274l-0.425,-0.274l-0.422,-0.273l-0.417,-0.274l-0.412,-0.273l-0.407,-0.274l-0.402,-0.273l-0.398,-0.274l-0.392,-0.273l-0.389,-0.273l-0.383,-0.273l-0.379,-0.273l-0.374,-0.273l-0.369,-0.272l-0.365,-0.273l-0.36,-0.272l-0.355,-0.273l-0.351,-0.272l-0.347,-0.272l-0.342,-0.272l-0.337,-0.272l-0.333,-0.271l-0.328,-0.271l-0.325,-0.272l-0.32,-0.271l-0.315,-0.27l-0.31,-0.271l-0.307,-0.27l-0.302,-0.269l-0.298,-0.27l-0.293,-0.269l-0.289,-0.269l-0.285,-0.269l-0.281,-0.269l-0.277,-0.268l-0.271,-0.268l-0.268,-0.268l-0.265,-0.267l-0.259,-0.266l-0.255,-0.267l-0.252,-0.266l-0.247,-0.266l-0.243,-0.266l-0.24,-0.265l-0.234,-0.265l-0.231,-0.263l-0.228,-0.264l-0.222,-0.264l-0.22,-0.263l-0.215,-0.262l-0.211,-0.263l-0.207,-0.261l-0.203,-0.261l-0.2,-0.261l-0.195,-0.26l-0.192,-0.26l-0.188,-0.258l-0.185,-0.259l-0.18,-0.259l-0.177,-0.258l-0.172,-0.257l-0.17,-0.256l-0.165,-0.256l-0.162,-0.256l-0.158,-0.255l-0.154,-0.253l-0.151,-0.254l-0.147,-0.254l-0.144,-0.252l-0.14,-0.252l-0.136,-0.251l-0.133,-0.251l-0.13,-0.249l-0.126,-0.25l-0.122,-0.249l-0.12,-0.247l-0.115,-0.248l-0.112,-0.247l-0.109,-0.245l-0.105,-0.246l-0.102,-0.244l-0.099,-0.244l-0.096,-0.243l-0.091,-0.243l-0.089,-0.24l-0.086,-0.242l-0.082,-0.239l-0.079,-0.24l-0.075,-0.239l-0.073,-0.237l-0.07,-0.237l-0.066,-0.235l-0.064,-0.236l-0.059,-0.234l-0.057,-0.234l-0.054,-0.232l-0.051,-0.232l-0.048,-0.231l-0.045,-0.23l-0.042,-0.229l-0.038,-0.229l-0.035,-0.227l-0.033,-0.227l-0.03,-0.225l-0.027,-0.224l-0.025,-0.224l-0.021,-0.222l-0.019,-0.223l-0.015,-0.22l-0.013,-0.22l-0.01,-0.219l-0.007,-0.218l-0.005,-0.217l-0.002,-0.216l0.001,-0.214l0.004,-0.214l0.006,-0.213l0.009,-0.211l0.012,-0.211l0.014,-0.21l0.017,-0.208l0.02,-0.208l0.022,-0.206l0.024,-0.206l0.028,-0.204l0.029,-0.202l0.031,-0.202l0.035,-0.201l0.037,-0.199l0.039,-0.199l0.042,-0.197l0.045,-0.196l0.046,-0.195l0.049,-0.194l0.052,-0.192l0.053,-0.192l0.056,-0.19l0.058,-0.188l0.06,-0.188l0.063,-0.186l0.065,-0.186l0.067,-0.184l0.069,-0.182l0.072,-0.182l0.073,-0.18l0.076,-0.178l0.077,-0.178l0.08,-0.176l0.082,-0.175l0.085,-0.174l0.086,-0.171l0.087,-0.171l0.09,-0.17l0.093,-0.168l0.094,-0.167l0.095,-0.165l0.098,-0.163l0.1,-0.163l0.102,-0.161l0.102,-0.16l0.106,-0.158l0.107,-0.157l0.108,-0.156l0.111,-0.153l0.113,-0.153l0.114,-0.151l0.116,-0.149l0.118,-0.148l0.119,-0.146l0.12,-0.145l0.123,-0.143l0.125,-0.143l0.125,-0.14l0.128,-0.139l0.129,-0.137l0.13,-0.136l0.132,-0.134l0.134,-0.133l0.135,-0.13l0.137,-0.13l0.137,-0.128l0.14,-0.125l0.141,-0.125l0.142,-0.123l0.144,-0.121l0.145,-0.12l0.146,-0.118l0.148,-0.116l0.149,-0.114l0.15,-0.114l0.152,-0.111l0.152,-0.109l0.155,-0.107l0.154,-0.106l0.157,-0.104l0.157,-0.104l0.16,-0.101l0.16,-0.099l0.16,-0.097l0.163,-0.095l0.162,-0.094l0.165,-0.092l0.165,-0.09l0.167,-0.088l0.167,-0.087l0.168,-0.084l0.17,-0.082l0.169,-0.081l0.172,-0.079l0.171,-0.078l0.174,-0.075l0.173,-0.074l0.175,-0.071l0.175,-0.07l0.177,-0.068l0.176,-0.066l0.178,-0.063l0.178,-0.062l0.18,-0.06l0.181,-0.058l0.18,-0.056l0.182,-0.054l0.181,-0.052l0.184,-0.05l0.182,-0.048l0.185,-0.046l0.184,-0.045l0.185,-0.041l0.185,-0.041l0.187,-0.037l0.186,-0.037l0.188,-0.033l0.187,-0.032l0.188,-0.03l0.188,-0.027l0.19,-0.025l0.188,-0.024l0.191,-0.022l0.189,-0.019l0.191,-0.016l0.19,-0.015l0.191,-0.013l0.191,-0.011l0.192,-0.008l0.191,-0.006l0.193,-0.004l0.179,-0.002l0.181,0l0.18,0.002l0.181,0.004l0.181,0.006l0.181,0.008l0.18,0.011l0.182,0.012l0.18,0.014l0.182,0.016l0.18,0.018l0.182,0.019l0.181,0.023l0.181,0.024l0.181,0.026l0.181,0.029l0.18,0.03l0.182,0.031l0.18,0.035l0.181,0.036l0.18,0.039l0.181,0.041l0.179,0.042l0.181,0.045l0.179,0.047l0.18,0.049l0.179,0.051l0.179,0.053l0.179,0.056l0.178,0.057l0.179,0.06l0.177,0.061l0.178,0.065l0.177,0.066l0.177,0.069l0.176,0.07l0.177,0.073l0.175,0.075l0.176,0.077l0.174,0.08l0.175,0.082l0.173,0.083l0.174,0.086l0.172,0.088l0.173,0.091l0.173,0.093l0.17,0.095l0.172,0.097l0.169,0.1l0.17,0.103l0.169,0.104l0.169,0.107l0.167,0.109l0.167,0.111l0.166,0.113l0.166,0.117l0.166,0.118l0.163,0.12l0.164,0.124l0.163,0.125l0.162,0.127l0.161,0.131l0.161,0.132l0.16,0.136l0.159,-0.136l0.161,-0.132l0.16,-0.131l0.163,-0.127l0.162,-0.125l0.164,-0.124l0.165,-0.12l0.164,-0.118l0.166,-0.117l0.166,-0.113l0.168,-0.111l0.167,-0.109l0.169,-0.107l0.168,-0.104l0.17,-0.103l0.171,-0.1l0.17,-0.097l0.172,-0.095l0.171,-0.093l0.173,-0.091l0.173,-0.088l0.173,-0.086l0.174,-0.083l0.175,-0.082l0.174,-0.08l0.176,-0.077l0.175,-0.075l0.176,-0.073l0.176,-0.07l0.178,-0.069l0.177,-0.066l0.177,-0.065l0.179,-0.061l0.177,-0.06l0.179,-0.057l0.179,-0.056l0.179,-0.053l0.179,-0.051l0.18,-0.049l0.179,-0.047l0.18,-0.045l0.18,-0.042l0.181,-0.041l0.18,-0.039l0.181,-0.036l0.18,-0.035l0.181,-0.031l0.18,-0.03l0.182,-0.029l0.18,-0.026l0.182,-0.024l0.181,-0.023l0.181,-0.019l0.181,-0.018l0.181,-0.016l0.181,-0.014l0.181,-0.012l0.182,-0.011l0.18,-0.008l0.181,-0.006l0.18,-0.004l0.181,-0.002l0.18,0l0.181,0.002Z" style="fill:#3e3e3e;"/></svg>