<?xml version="1.0" encoding="UTF-8" standalone="no"?><!DOCTYPE svg PUBLIC "-//W3C//DTD SVG 1.1//EN" "http://www.w3.org/Graphics/SVG/1.1/DTD/svg11.dtd"><svg width="100%" height="100%" viewBox="0 0 76 69" version="1.1" xmlns="http://www.w3.org/2000/svg" xmlns:xlink="http://www.w3.org/1999/xlink" xml:space="preserve" style="fill-rule:evenodd;clip-rule:evenodd;stroke-linejoin:round;stroke-miterlimit:1.41421;"><rect id="Artboard1" x="0.09" y="0.058" width="75" height="68" style="fill:none;"/><g><path d="M60.383,15.615c-0.347,-1.3 -0.578,-2.023 -0.578,-2.023c-0.376,-1.344 -1.33,-1.344 -2.746,-1.575l-7.675,-0.969c-0.954,-0.159 -0.954,-0.159 -1.33,-0.983c-1.257,-2.832 -1.647,-4.48 -3.02,-4.48l-14.887,0c-1.373,0 -1.749,1.648 -3.006,4.495c-0.376,0.809 -0.376,0.809 -1.33,0.983l-7.689,0.968c-1.402,0.231 -2.414,0.361 -2.789,1.706c0,0 -0.174,0.592 -0.535,1.878c-0.463,1.72 -0.651,1.532 0.939,1.532l43.706,0c1.59,0.015 1.417,0.188 0.94,-1.532Z" style="fill:#fff;fill-rule:nonzero;"/><path d="M55.426,22.495l-35.671,0c-2.399,0 -2.515,0.318 -2.37,2.125l2.703,35.063c0.231,1.778 0.404,2.139 2.529,2.139l29.947,0c2.124,0 2.298,-0.361 2.529,-2.139l2.703,-35.063c0.144,-1.821 0.029,-2.125 -2.37,-2.125Z" style="fill:#fff;fill-rule:nonzero;"/></g></svg>